<svg width="18" height="18" viewBox="0 0 18 18" fill="none" xmlns="http://www.w3.org/2000/svg">
<path fill-rule="evenodd" clip-rule="evenodd" d="M17.41 16.5899L13.7529 12.9318L13.9804 12.6391C14.9791 11.355 15.58 9.74779 15.58 7.99998C15.58 3.82094 12.179 0.419983 7.99998 0.419983C3.82094 0.419983 0.419983 3.82094 0.419983 7.99998C0.419983 12.179 3.82094 15.58 7.99998 15.58C9.74778 15.58 11.355 14.9791 12.6391 13.9804L12.9318 13.7529L16.5899 17.41C16.7032 17.5232 16.8511 17.58 17 17.58C17.1489 17.58 17.2967 17.5233 17.41 17.41C17.637 17.183 17.6369 16.8169 17.41 16.5899ZM1.57998 7.99998C1.57998 4.45902 4.45902 1.57998 7.99998 1.57998C11.5409 1.57998 14.42 4.45902 14.42 7.99998C14.42 11.5409 11.5409 14.42 7.99998 14.42C4.45902 14.42 1.57998 11.5409 1.57998 7.99998Z" fill="white"/>
</svg>
