<svg width="108" height="37" viewBox="0 0 108 37" fill="none" xmlns="http://www.w3.org/2000/svg">
<path d="M42.476 0.347209H44.3252C44.5159 0.347519 44.6986 0.423472 44.8333 0.558392C44.968 0.693313 45.0437 0.876173 45.0437 1.06682V35.5464C45.0437 35.737 44.968 35.9199 44.8333 36.0548C44.6986 36.1897 44.5159 36.2657 44.3252 36.266H41.8627C41.6954 36.2658 41.5334 36.2074 41.4044 36.1008C41.2755 35.9942 41.1876 35.8461 41.1559 35.6819L36.7307 12.1402C36.7296 12.1294 36.7243 12.1194 36.7159 12.1125C36.7074 12.1056 36.6966 12.1024 36.6858 12.1034C36.6749 12.1045 36.6649 12.1099 36.658 12.1183C36.6511 12.1267 36.6479 12.1376 36.649 12.1484V35.5487C36.6486 35.7393 36.5729 35.9219 36.4383 36.0568C36.3036 36.1917 36.1211 36.2677 35.9305 36.2683H34.0812C33.8905 36.268 33.7076 36.1921 33.5727 36.0572C33.4379 35.9223 33.3619 35.7395 33.3616 35.5487V1.06682C33.3616 0.87597 33.4374 0.692933 33.5724 0.55798C33.7074 0.423026 33.8904 0.347209 34.0812 0.347209H36.4247C36.5921 0.346979 36.7543 0.405214 36.8833 0.511858C37.0124 0.618502 37.1001 0.76686 37.1314 0.931312L41.6746 25.1248C41.6757 25.1357 41.681 25.1456 41.6894 25.1525C41.6979 25.1594 41.7087 25.1627 41.7195 25.1616C41.7304 25.1605 41.7404 25.1552 41.7473 25.1468C41.7542 25.1383 41.7574 25.1275 41.7563 25.1166V1.06682C41.7563 0.87597 41.8322 0.692933 41.9671 0.55798C42.1021 0.423026 42.2851 0.347209 42.476 0.347209Z" fill="url(#paint0_linear_5971_14)"/>
<path d="M57.7222 2.62521C57.7222 2.81586 57.6465 2.99872 57.5118 3.13364C57.3771 3.26856 57.1944 3.34451 57.0038 3.34482H54.651C54.4601 3.34482 54.2771 3.42064 54.1421 3.55559C54.0072 3.69054 53.9314 3.87358 53.9314 4.06444V16.0806C53.9317 16.2712 54.0076 16.454 54.1426 16.5887C54.2775 16.7234 54.4603 16.799 54.651 16.799H57.0038C57.1943 16.7996 57.3769 16.8757 57.5115 17.0106C57.6461 17.1454 57.7219 17.3281 57.7222 17.5186V19.0782C57.7219 19.2686 57.6461 19.4512 57.5114 19.5859C57.3768 19.7205 57.1942 19.7963 57.0038 19.7966H54.651C54.4602 19.7969 54.2774 19.8729 54.1425 20.0078C54.0076 20.1426 53.9317 20.3255 53.9314 20.5163V32.5488C53.9314 32.7396 54.0072 32.9226 54.1421 33.0576C54.2771 33.1926 54.4601 33.2684 54.651 33.2684H57.0038C57.1942 33.2687 57.3768 33.3445 57.5114 33.4791C57.6461 33.6138 57.7219 33.7964 57.7222 33.9868V35.5464C57.7219 35.7369 57.6461 35.9196 57.5115 36.0545C57.3769 36.1893 57.1943 36.2654 57.0038 36.266H50.8578C50.6673 36.2654 50.4847 36.1893 50.3501 36.0545C50.2155 35.9196 50.1397 35.7369 50.1394 35.5464V1.06682C50.1394 0.876172 50.215 0.693312 50.3498 0.558392C50.4845 0.423471 50.6672 0.347518 50.8578 0.347209H57.0014C57.1921 0.347518 57.3748 0.423471 57.5095 0.558392C57.6442 0.693312 57.7199 0.876172 57.7199 1.06682V2.62638L57.7222 2.62521Z" fill="url(#paint1_linear_5971_14)"/>
<path d="M73.3247 36.2718H71.5187C71.3543 36.2718 71.1949 36.2153 71.0673 36.1117C70.9397 36.0081 70.8515 35.8638 70.8178 35.7029L68.5573 25.0722C68.5523 25.0493 68.5396 25.0288 68.5213 25.014C68.5031 24.9993 68.4803 24.9912 68.4568 24.9912C68.4333 24.9912 68.4106 24.9993 68.3923 25.014C68.374 25.0288 68.3613 25.0493 68.3563 25.0722L66.0959 35.7029C66.0619 35.8637 65.9737 36.0079 65.8461 36.1115C65.7186 36.215 65.5593 36.2716 65.395 36.2718H63.5912C63.4843 36.2714 63.3788 36.2471 63.2824 36.2008C63.186 36.1544 63.1012 36.0872 63.0341 36.004C62.9669 35.9207 62.9192 35.8236 62.8943 35.7195C62.8695 35.6155 62.8681 35.5073 62.8903 35.4027L66.2991 19.3714C66.4488 18.6671 66.4488 17.9391 66.2991 17.2348L62.8903 1.21635C62.8683 1.11177 62.8699 1.0036 62.8948 0.899683C62.9198 0.795765 62.9675 0.698696 63.0346 0.615505C63.1017 0.532314 63.1864 0.465083 63.2827 0.418681C63.379 0.372278 63.4844 0.347865 63.5912 0.347209H65.3985C65.5627 0.347833 65.7217 0.404601 65.8492 0.508087C65.9767 0.611574 66.065 0.755554 66.0994 0.916125L68.3528 11.5187C68.3578 11.5417 68.3705 11.5622 68.3888 11.577C68.4071 11.5917 68.4298 11.5998 68.4533 11.5998C68.4768 11.5998 68.4996 11.5917 68.5178 11.577C68.5361 11.5622 68.5488 11.5417 68.5538 11.5187L70.8084 0.916125C70.8424 0.755354 70.9306 0.611127 71.0581 0.50757C71.1857 0.404012 71.345 0.347402 71.5093 0.347209H73.3177C73.4247 0.347652 73.5301 0.371925 73.6265 0.418262C73.7229 0.464598 73.8078 0.531833 73.8749 0.615077C73.942 0.698322 73.9898 0.795482 74.0146 0.899492C74.0395 1.0035 74.0409 1.11175 74.0186 1.21635L70.6215 17.2348C70.4708 17.939 70.4708 18.6672 70.6215 19.3714L74.028 35.4027C74.0505 35.5075 74.0492 35.616 74.0243 35.7203C73.9994 35.8246 73.9515 35.922 73.884 36.0053C73.8166 36.0886 73.7314 36.1558 73.6346 36.2019C73.5378 36.2481 73.4319 36.2719 73.3247 36.2718Z" fill="url(#paint2_linear_5971_14)"/>
<path d="M79.8491 0.347209H89.7847C89.9754 0.347518 90.1581 0.423471 90.2928 0.558392C90.4275 0.693312 90.5032 0.876172 90.5032 1.06682V2.62638C90.5029 2.81682 90.4271 2.99938 90.2924 3.13405C90.1577 3.26872 89.9752 3.34451 89.7847 3.34482H87.432C87.2412 3.34513 87.0583 3.42105 86.9235 3.55593C86.7886 3.69082 86.7127 3.87368 86.7123 4.06444V35.5487C86.712 35.7393 86.6363 35.9219 86.5016 36.0568C86.367 36.1917 86.1845 36.2677 85.9939 36.2683H83.6411C83.4506 36.2677 83.268 36.1917 83.1334 36.0568C82.9988 35.9219 82.923 35.7393 82.9227 35.5487V4.06444C82.9227 3.87358 82.8469 3.69054 82.7119 3.55559C82.577 3.42064 82.3939 3.34482 82.2031 3.34482H79.8515C79.6608 3.34482 79.478 3.26917 79.3431 3.13446C79.2081 2.99976 79.1322 2.81703 79.1319 2.62638V1.06682C79.1319 0.876374 79.2074 0.69369 79.3418 0.558803C79.4763 0.423917 79.6587 0.347827 79.8491 0.347209Z" fill="url(#paint3_linear_5971_14)"/>
<path d="M103.956 0.347209H106.309C106.5 0.347209 106.683 0.423025 106.818 0.557979C106.953 0.692933 107.029 0.87597 107.029 1.06682V35.5487C107.028 35.7395 106.952 35.9223 106.817 36.0572C106.683 36.1921 106.5 36.268 106.309 36.2683H103.956C103.766 36.2677 103.583 36.1917 103.448 36.0568C103.314 35.9219 103.238 35.7393 103.238 35.5487V20.5163C103.237 20.3255 103.162 20.1426 103.027 20.0078C102.892 19.8729 102.709 19.7969 102.518 19.7966H100.167C99.9758 19.7969 99.7929 19.8729 99.658 20.0078C99.5232 20.1426 99.4472 20.3255 99.4469 20.5163V35.5487C99.4466 35.7393 99.3709 35.9219 99.2362 36.0568C99.1016 36.1917 98.919 36.2677 98.7285 36.2683H96.3757C96.185 36.268 96.0021 36.1921 95.8672 36.0572C95.7323 35.9223 95.6564 35.7395 95.6561 35.5487V1.06682C95.6561 0.87597 95.7319 0.692933 95.8669 0.557979C96.0018 0.423025 96.1849 0.347209 96.3757 0.347209H98.7285C98.9192 0.347518 99.1019 0.423471 99.2366 0.558392C99.3713 0.693312 99.4469 0.876172 99.4469 1.06682V16.0806C99.4473 16.2712 99.5232 16.454 99.6581 16.5887C99.793 16.7234 99.9759 16.799 100.167 16.799H102.518C102.709 16.799 102.892 16.7234 103.027 16.5887C103.161 16.454 103.237 16.2712 103.238 16.0806V1.06682C103.238 0.876172 103.313 0.693312 103.448 0.558392C103.583 0.423471 103.766 0.347518 103.956 0.347209Z" fill="url(#paint4_linear_5971_14)"/>
<path d="M10.3293 20.3223L10.3351 20.3574C9.01391 21.4088 8.43799 22.9601 8.43799 25.0945V25.5057C8.43799 28.2498 9.8889 30.1049 12.994 31.1761C13.6945 31.3338 14.4092 31.4195 15.1271 31.432C17.9565 31.432 19.8478 30.1773 20.9144 27.5979C21.1644 26.7206 21.467 25.5793 21.467 24.4788V15.4685C20.2263 16.5304 18.6633 17.2605 16.8327 17.785C12.4601 18.9112 10.8749 19.7885 10.3328 20.3282L10.3293 20.3223Z" fill="url(#paint5_linear_5971_14)"/>
<path fill-rule="evenodd" clip-rule="evenodd" d="M1.15308 0.792319C1.08589 0.880609 1.0327 0.978719 0.995377 1.0832V35.8957C1.02009 35.9824 1.05962 36.0642 1.1122 36.1375C1.19114 36.1912 1.28083 36.2271 1.37504 36.2426H27.8103C27.9231 36.2161 28.0303 36.1698 28.1269 36.106C28.1951 36.0168 28.2487 35.9175 28.2858 35.8116V1.14512C28.2494 1.02216 28.1921 0.906379 28.1164 0.802832C28.03 0.715217 27.7286 0.686012 27.7286 0.686012H1.4685C1.35544 0.698774 1.24718 0.738869 1.15308 0.802832V0.792319ZM23.9447 23.8737C23.9447 26.8468 23.0896 29.0453 21.5149 30.5955C19.814 32.2591 17.5512 33.0663 14.7311 33.0663C10.7195 33.0663 7.82003 31.5056 6.13547 28.425L6.10744 28.3783C5.6586 27.2741 5.43499 26.0913 5.44974 24.8994C5.44974 21.3726 7.59456 18.9088 11.8235 17.5747C17.2988 15.9731 19.1037 15.0701 19.6504 14.5947C20.7369 13.7372 21.2614 12.6344 21.2614 11.2069C21.2614 8.64966 20.0932 6.89502 17.6785 5.8448C16.8827 5.51321 16.0312 5.33562 15.1692 5.32145C11.8305 5.32145 9.91228 6.65787 9.21136 9.41016C9.04855 10.3056 9.0503 11.1274 9.0521 11.9742C9.05229 12.0631 9.05248 12.1523 9.05248 12.2419V12.6846H6.285V12.4779H6.36912V11.6368H6.30019C6.42519 8.94989 7.40298 7.01651 9.19851 5.38453L9.25458 5.36584C10.862 4.2467 12.8269 3.71283 15.2393 3.71283C18.8724 3.71283 21.585 5.11467 23.1691 7.87047C23.6363 8.74896 23.9424 9.82955 23.9424 11.2746L23.9447 23.8737Z" fill="url(#paint6_linear_5971_14)"/>
<defs>
<linearGradient id="paint0_linear_5971_14" x1="54.012" y1="32.8872" x2="54.012" y2="13.9616" gradientUnits="userSpaceOnUse">
<stop stop-color="#3971B6"/>
<stop offset="1" stop-color="#61C2D7"/>
</linearGradient>
<linearGradient id="paint1_linear_5971_14" x1="54.012" y1="32.8872" x2="54.012" y2="13.9616" gradientUnits="userSpaceOnUse">
<stop stop-color="#3971B6"/>
<stop offset="1" stop-color="#61C2D7"/>
</linearGradient>
<linearGradient id="paint2_linear_5971_14" x1="54.012" y1="32.8872" x2="54.012" y2="13.9616" gradientUnits="userSpaceOnUse">
<stop stop-color="#3971B6"/>
<stop offset="1" stop-color="#61C2D7"/>
</linearGradient>
<linearGradient id="paint3_linear_5971_14" x1="54.012" y1="32.8872" x2="54.012" y2="13.9616" gradientUnits="userSpaceOnUse">
<stop stop-color="#3971B6"/>
<stop offset="1" stop-color="#61C2D7"/>
</linearGradient>
<linearGradient id="paint4_linear_5971_14" x1="54.012" y1="32.8872" x2="54.012" y2="13.9616" gradientUnits="userSpaceOnUse">
<stop stop-color="#3971B6"/>
<stop offset="1" stop-color="#61C2D7"/>
</linearGradient>
<linearGradient id="paint5_linear_5971_14" x1="54.012" y1="32.8872" x2="54.012" y2="13.9616" gradientUnits="userSpaceOnUse">
<stop stop-color="#3971B6"/>
<stop offset="1" stop-color="#61C2D7"/>
</linearGradient>
<linearGradient id="paint6_linear_5971_14" x1="54.012" y1="32.8872" x2="54.012" y2="13.9616" gradientUnits="userSpaceOnUse">
<stop stop-color="#3971B6"/>
<stop offset="1" stop-color="#61C2D7"/>
</linearGradient>
</defs>
</svg>
