<svg width="32" height="33" viewBox="0 0 32 33" fill="none" xmlns="http://www.w3.org/2000/svg">
<rect y="0.12915" width="32" height="32" rx="16" fill="#E6EBF2"/>
<mask id="mask0_3284_49" style="mask-type:alpha" maskUnits="userSpaceOnUse" x="0" y="0" width="32" height="33">
<rect y="0.12915" width="32" height="32" rx="16" fill="#E6EBF2"/>
</mask>
<g mask="url(#mask0_3284_49)">
<path d="M10.4798 11.4908C10.4798 11.4838 10.4802 11.4765 10.4808 11.4689C10.48 11.4832 10.4798 11.4908 10.4798 11.4908Z" fill="#ADBFD9"/>
<path d="M11.8839 9.24276C11.3823 9.38535 10.9669 9.841 10.5862 10.2934C11.3396 9.67405 11.5722 9.78953 11.5722 9.78953C10.5993 9.98409 10.4913 11.2838 10.4808 11.4689C10.4934 11.3296 10.619 11.1061 10.7382 10.8939C10.7854 10.8098 10.8317 10.7274 10.8695 10.6528C10.6183 11.3339 10.7087 12.7498 10.77 13.4185C10.6923 13.4738 10.6396 13.5647 10.6396 13.7098C10.6396 13.9543 10.676 14.1504 10.7078 14.3212C10.7476 14.5355 10.78 14.7101 10.7241 14.8913C10.6241 15.217 10.8746 15.9936 11.6513 15.9936C11.6574 15.9936 11.6634 15.9934 11.6692 15.9931C11.7186 16.2933 11.7947 16.5891 11.8973 16.8768C12.1647 17.6259 12.6303 18.6592 13.3649 19.4806C13.3324 20.004 13.2571 20.557 13.0892 20.8039C13.0805 20.8171 13.0714 20.8297 13.0616 20.8414C12.9798 20.9397 12.6523 21.0741 12.181 21.2343C11.721 21.3905 11.1236 21.5704 10.4834 21.7633C8.63433 22.3204 6.42752 22.9853 6.13798 23.496C5.64524 24.364 3.87085 32.1289 3.87085 32.1289H27.8709C27.8709 32.1289 26.0967 24.364 25.6037 23.496C25.3139 22.9856 23.108 22.3209 21.2591 21.7637L21.2588 21.7637C20.6886 21.5918 20.1522 21.4302 19.7166 21.2865C19.2237 21.1242 18.8595 20.9845 18.7208 20.8792C18.7038 20.8659 18.6894 20.8534 18.6794 20.8414C18.493 20.6182 18.4115 20.0369 18.3772 19.4869C19.115 18.6645 19.5824 17.6278 19.8503 16.8768C19.9562 16.5801 20.0338 16.2748 20.0831 15.9649C20.6662 15.8217 20.8526 15.1797 20.7637 14.8913C20.7061 14.7038 20.7304 14.5357 20.7614 14.3216C20.7842 14.1639 20.8107 13.9811 20.8107 13.7473C20.8107 13.6563 20.791 13.5856 20.7581 13.5309C20.9206 12.7723 21.1656 11.411 21.0286 10.6155C20.8313 9.46914 19.4506 8.24863 19.4506 8.24863C20.0917 8.49507 20.6094 9.41977 20.6094 9.41977C20.0491 7.92952 18.2435 7.31545 18.1252 7.27667L18.5752 7.42267C16.7011 5.85719 13.8779 6.95417 13.8779 6.95417C14.0873 6.78168 14.7778 6.58441 14.7778 6.58441C13.3882 6.62302 12.7431 7.63802 12.4549 8.39144C12.6158 7.77479 12.8893 7.10322 13.3416 6.86477C13.3416 6.86477 12.2733 7.24303 12.0326 8.89324C12.0064 8.51484 12.0259 8.11624 12.1474 7.78374C12.1474 7.78374 11.8148 8.20419 11.8839 9.24276Z" fill="#ADBFD9"/>
<path d="M14.4514 32.1289L15.1374 25.9844L14.6091 24.6856L15.8708 23.6128L17.0536 24.6856L16.6041 25.9844L17.2901 32.1289H14.4514Z" fill="#F5F6F5"/>
</g>
</svg>
